<svg width="535" height="118" viewBox="0 0 535 118" fill="none" xmlns="http://www.w3.org/2000/svg">
<path d="M53.7588 1.53809H78.3682L133.739 116.016H109.35L100.194 96.7529H33.3242L24.4619 116.016H-0.000976562L53.7588 1.53809ZM91.0391 77.6367L66.2832 25.6348L42.1865 77.6367H91.0391ZM168.107 1.53809H191.472V116.016H168.107V1.53809Z" fill="#0C24FF"/>
<path d="M233.896 58.4473C233.896 49.8047 235.483 41.8945 238.657 34.7168C241.831 27.5391 246.274 21.3867 251.987 16.2598C257.749 11.084 264.634 7.08008 272.642 4.24805C280.698 1.41602 289.609 0 299.375 0C309.092 0 317.979 1.41602 326.035 4.24805C334.092 7.08008 340.977 11.084 346.689 16.2598C352.451 21.3867 356.919 27.5391 360.093 34.7168C363.267 41.8945 364.854 49.8047 364.854 58.4473C364.854 66.1621 363.584 73.3154 361.045 79.9072C358.555 86.4502 355.015 92.2607 350.425 97.3389L371.006 116.016H341.562L334.458 109.57C329.478 112.207 324.058 114.209 318.198 115.576C312.339 116.943 306.064 117.627 299.375 117.627C289.609 117.627 280.698 116.187 272.642 113.306C264.634 110.376 257.749 106.299 251.987 101.074C246.274 95.8496 241.831 89.624 238.657 82.3975C235.483 75.1221 233.896 67.1387 233.896 58.4473ZM257.114 58.4473C257.114 64.3555 258.164 69.6777 260.264 74.4141C262.412 79.1504 265.366 83.2031 269.126 86.5723C272.935 89.8926 277.402 92.4561 282.529 94.2627C287.705 96.0693 293.32 96.9727 299.375 96.9727C305.869 96.9727 311.802 95.9473 317.173 93.8965L284.36 64.1602H313.804L333.726 82.251C336.216 79.0771 338.145 75.5127 339.512 71.5576C340.928 67.5537 341.636 63.1836 341.636 58.4473C341.636 52.5391 340.562 47.2412 338.413 42.5537C336.265 37.8662 333.311 33.9111 329.551 30.6885C325.791 27.417 321.323 24.9268 316.147 23.2178C311.021 21.5088 305.43 20.6543 299.375 20.6543C293.32 20.6543 287.705 21.5088 282.529 23.2178C277.402 24.9268 272.935 27.417 269.126 30.6885C265.366 33.9111 262.412 37.8662 260.264 42.5537C258.164 47.2412 257.114 52.5391 257.114 58.4473ZM403.396 58.4473C403.396 49.8047 404.983 41.8945 408.157 34.7168C411.331 27.5391 415.774 21.3867 421.487 16.2598C427.249 11.084 434.134 7.08008 442.142 4.24805C450.198 1.41602 459.109 0 468.875 0C478.592 0 487.479 1.41602 495.535 4.24805C503.592 7.08008 510.477 11.084 516.189 16.2598C521.951 21.3867 526.419 27.5391 529.593 34.7168C532.767 41.8945 534.354 49.8047 534.354 58.4473C534.354 67.1387 532.767 75.1221 529.593 82.3975C526.419 89.624 521.951 95.8496 516.189 101.074C510.477 106.299 503.592 110.376 495.535 113.306C487.479 116.187 478.592 117.627 468.875 117.627C459.109 117.627 450.198 116.187 442.142 113.306C434.134 110.376 427.249 106.299 421.487 101.074C415.774 95.8496 411.331 89.624 408.157 82.3975C404.983 75.1221 403.396 67.1387 403.396 58.4473ZM426.614 58.4473C426.614 64.3555 427.664 69.6777 429.764 74.4141C431.912 79.1504 434.866 83.2031 438.626 86.5723C442.435 89.8926 446.902 92.4561 452.029 94.2627C457.205 96.0693 462.82 96.9727 468.875 96.9727C474.93 96.9727 480.521 96.0693 485.647 94.2627C490.823 92.4561 495.291 89.8926 499.051 86.5723C502.811 83.2031 505.765 79.1504 507.913 74.4141C510.062 69.6777 511.136 64.3555 511.136 58.4473C511.136 52.5391 510.062 47.2412 507.913 42.5537C505.765 37.8662 502.811 33.9111 499.051 30.6885C495.291 27.417 490.823 24.9268 485.647 23.2178C480.521 21.5088 474.93 20.6543 468.875 20.6543C462.82 20.6543 457.205 21.5088 452.029 23.2178C446.902 24.9268 442.435 27.417 438.626 30.6885C434.866 33.9111 431.912 37.8662 429.764 42.5537C427.664 47.2412 426.614 52.5391 426.614 58.4473Z" fill="white"/>
</svg>
